<?xml version="1.0" encoding="UTF-8" standalone="no"?>
<!-- Created with Inkscape (http://www.inkscape.org/) -->

<svg
   version="1.1"
   id="svg2"
   width="599.5"
   height="596"
   viewBox="0 0 599.5 596"
   xmlns="http://www.w3.org/2000/svg"
   xmlns:svg="http://www.w3.org/2000/svg">
  <defs
     id="defs6" />
  <g
     id="g8"
     transform="translate(-35.31386,-0.01444863)">
    <path
       style="fill:#ededed;fill-opacity:1"
       d="m 35.59211,447.01445 -0.27825,-149 0.27825,-149 L 35.87037,0.01444854 H 335.34212 634.81386 V 298.01445 v 298 H 335.34212 35.87037 Z m 586.22175,-149 V 13.014449 H 335.33057 48.84728 l -0.26671,142.500001 -0.26671,142.5 0.26671,142.5 0.26671,142.5 h 286.48329 286.48329 z m -488.5,229.59352 -5,-2.55938 -2.24887,-3.3273 -2.24887,-3.3273 -1.06671,-5.77036 -1.06671,-5.77037 1.06574,-4.96937 1.06574,-4.96938 1.46392,-2.83092 1.46392,-2.83091 3.08139,-2.59281 3.08139,-2.59282 4.20453,-1.1364 4.20453,-1.13641 5,0.53269 5,0.53269 3.75,1.59083 3.75,1.59084 v 3.48658 3.48658 h -0.94098 -0.94099 l -0.68238,-1.10413 -0.68239,-1.10412 -4.12663,-1.87391 -4.12663,-1.87392 -4.10212,-0.022 -4.10211,-0.022 -3.34382,2.2534 -3.34382,2.2534 -1.95113,3.34078 -1.95112,3.34079 v 6.81163 6.81163 l 1.95112,3.34079 1.95113,3.34078 3.34382,2.2534 3.34382,2.2534 h 4.25057 4.25057 l 5.60154,-2.94658 5.60155,-2.94659 v 3.26137 3.26138 l -3.75,1.81484 -3.75,1.81484 -6.5,0.44682 -6.5,0.44682 -5,-2.55938 z m 70.5,-20.59352 v -22 h 3 3 v 8.5 8.5 h 10.5 10.5 v -8.5 -8.5 h 3 3 v 22 22 h -3 -3 v -11 -11 h -10.5 -10.5 v 11 11 h -3 -3 z m 82,0 v -22 h 14.5 14.5 v 2.5 2.5 h -11.5 -11.5 v 6 6 h 11.5 11.5 v 2.5 2.5 h -11.5 -11.5 v 8.5 8.5 h 11.5 11.5 v 2.5 2.5 h -14.5 -14.5 z m 75,0 v -22 h 9.03212 9.03212 l 3.33719,1.39437 3.33718,1.39436 1.6307,2.32814 1.63069,2.32814 v 4.93233 4.93233 l -3.98684,3.7926 -3.98685,3.79259 8.03176,9.55257 8.03175,9.55257 h -3.8476 -3.8476 l -7.28496,-9 -7.28496,-9 h -3.91235 -3.91235 v 9 9 h -3 -3 z m 20.14873,-3.93535 1.85127,-2.28622 v -3.19808 -3.19809 l -1.37911,-1.88604 -1.3791,-1.88604 -6.6209,-0.42158 -6.62089,-0.42159 v 8.23669 8.23668 l 6.14873,-0.44476 6.14874,-0.44476 z m 58.85127,3.93535 v -22 h 9.03212 9.03212 l 3.33719,1.39437 3.33718,1.39436 1.6307,2.32814 1.63069,2.32814 v 4.93233 4.93233 l -3.98684,3.7926 -3.98685,3.79259 8.03176,9.55257 8.03175,9.55257 h -3.8476 -3.8476 l -7.28496,-9 -7.28496,-9 h -3.91235 -3.91235 v 9 9 h -3 -3 z m 20.14873,-3.93535 1.85127,-2.28622 v -3.19808 -3.19809 l -1.37911,-1.88604 -1.3791,-1.88604 -6.6209,-0.42158 -6.62089,-0.42159 v 8.23669 8.23668 l 6.14873,-0.44476 6.14874,-0.44476 z m 68.85127,16.95058 v -8.98478 l -7.91594,-13.01522 -7.91594,-13.01523 h 3.29273 3.29274 l 5.76687,9.66376 5.76688,9.66376 1.42692,-1.91376 1.42691,-1.91376 4.66879,-7.75 4.66879,-7.75 h 2.86762 2.86761 l -0.49581,1.25 -0.49582,1.25 -7.11117,11.42288 -7.11118,11.42289 v 9.32711 9.32712 h -2.5 -2.5 z m -339,-99.94945 v -9.06578 l 8.75,-0.0245 8.75,-0.0244 4.47995,-1.03226 4.47996,-1.03226 3.38888,-2.58483 3.38888,-2.58483 2.13117,-4.60846 2.13116,-4.60846 v -114 -114 l -0.82295,-4.82787 -0.82295,-4.82786 -3.47852,-3.85031 -3.47853,-3.85031 -4.99774,-1.07182 -4.99775,-1.07183 h -9.45078 -9.45078 v -9 -9 l 83.25,0.004 83.25,0.004 16,1.00372 16,1.00372 8.67071,1.47898 8.67072,1.47897 9.68059,3.45998 9.68058,3.45997 7.1487,4.24544 7.1487,4.24543 7.52041,7.55835 7.52041,7.55835 3.71809,7.12435 3.71809,7.12436 1.69165,6.37564 1.69165,6.37565 -0.0297,11 -0.0297,11 -2.69047,7.89015 -2.69046,7.89015 -2.68189,4.5763 -2.68189,4.5763 -6.51737,6.90875 -6.51736,6.90875 -5.51077,3.73637 -5.51076,3.73636 -5,2.51072 -5,2.51073 -8.74368,2.83177 -8.74368,2.83177 12.96481,3.19631 12.96481,3.19631 8.27887,4.02966 8.27887,4.02966 5.97577,4.8442 5.97578,4.84419 4.83863,5.97578 4.83864,5.97577 3.36279,7 3.36278,7 1.73652,6.5 1.73652,6.5 0.008,11 0.008,11 -1.79298,7 -1.79298,7 -3.39272,7 -3.39272,7 -4.95477,6.60166 -4.95477,6.60165 -5.6049,4.78842 -5.60491,4.78842 -7.93221,4.76741 -7.93222,4.7674 -8.49419,3.07356 -8.4942,3.07355 -9.75013,1.95359 -9.75014,1.95359 -10.5,1.22353 -10.5,1.22354 -91.25,0.40762 -91.25,0.40762 v -9.06578 z m 184,-16.42007 10.5,-1.54089 5.5,-1.64779 5.5,-1.64779 6,-3.14467 6,-3.14467 7.62143,-7.57077 7.62143,-7.57078 3.51933,-7.43917 3.51933,-7.43918 1.27253,-5.5 1.27253,-5.5 -0.0485,-8.5 -0.0485,-8.5 -1.1749,-4.99944 -1.1749,-4.99944 -3.18705,-6.50056 -3.18704,-6.50056 -7.00282,-7.05021 -7.00282,-7.05021 -7,-3.6101 -7,-3.6101 -5.61587,-1.62165 -5.61586,-1.62166 -10.88414,-1.57489 -10.88413,-1.5749 -47.25,-0.50278 -47.25,-0.50278 v 56.64176 56.64176 l 1.37699,3.29561 1.377,3.29561 2.873,1.11618 2.87301,1.11618 2,0.49947 2,0.49948 41.5,-0.35009 41.5,-0.35009 10.5,-1.54088 z m -7.5,-143.551 7,-1.12847 7.6274,-2.52441 7.62741,-2.52442 5.87259,-3.5173 5.8726,-3.51729 5.19873,-5.10662 5.19873,-5.10661 3.17301,-5.95319 3.17302,-5.95318 1.33557,-5.06291 1.33557,-5.0629 0.65756,-6.67328 0.65757,-6.67328 -1.217,-7.21519 -1.217,-7.2152 -3.43284,-6.86183 -3.43283,-6.86184 -5.71505,-5.23113 -5.71504,-5.23113 -7.02869,-3.34319 -7.02869,-3.34319 -6.97131,-1.61508 -6.97131,-1.61508 -52.25,-0.48114 -52.25,-0.48114 v 55.20825 55.20825 l 45.75,-0.49452 45.75,-0.49451 z"
       id="path544" />
  </g>
</svg>
